<svg data-v-423bf9ae="" xmlns="http://www.w3.org/2000/svg" viewBox="0 0 648.8410700973747 60" class="font"><!----><!----><!----><g data-v-423bf9ae="" id="8696f540-2bbf-40ef-bf27-be9ce8b5ecfb" fill="black" transform="matrix(5.607476235685528,0,0,5.607476235685528,-2.2429986844379073,-22.093457166300503)"><path d="M1.68 5.17L0.40 5.17L0.40 5.17Q1.54 4.25 1.73 4.25L1.73 4.25L4.85 4.25L4.85 4.25Q4.76 4.26 4.43 4.55L4.43 4.55L4.43 4.55Q4.10 4.83 3.96 4.94L3.96 4.94L3.96 4.94Q3.66 5.17 3.52 5.17L3.52 5.17L3.01 5.17L3.01 11.43L3.01 11.43Q3.01 12.61 2.52 13.15L2.52 13.15L4.72 13.15L4.72 13.15Q4.62 13.17 4.29 13.45L4.29 13.45L4.29 13.45Q3.96 13.74 3.83 13.84L3.83 13.84L3.83 13.84Q3.52 14.08 3.38 14.08L3.38 14.08L1.07 14.08L1.07 14.08Q1.43 13.72 1.52 13.47L1.52 13.47L1.52 13.47Q1.68 13.06 1.68 12.45L1.68 12.45L1.68 5.17ZM18.47 11.58L18.47 11.58L18.47 11.58Q18.47 12.60 18.12 13.15L18.12 13.15L20.15 13.15L20.15 13.15Q20.02 13.19 19.84 13.34L19.84 13.34L19.84 13.34Q19.67 13.49 19.49 13.65L19.49 13.65L19.49 13.65Q19.00 14.08 18.81 14.08L18.81 14.08L16.78 14.08L16.78 14.08Q17.12 13.58 17.12 12.70L17.12 12.70L17.12 12.70Q17.12 11.83 17.08 11.02L17.08 11.02L17.08 11.02Q17.04 10.21 17.01 9.63L17.01 9.63L17.01 9.63Q16.98 9.04 16.96 8.66L16.96 8.66L16.96 8.66Q16.95 8.28 16.93 7.89L16.93 7.89L16.93 7.89Q16.88 6.75 16.86 6.38L16.86 6.38L16.86 6.38Q16.25 7.44 15.62 8.58L15.62 8.58L15.62 8.58Q14.98 9.71 14.53 10.50L14.53 10.50L14.53 10.50Q14.08 11.29 13.82 11.80L13.82 11.80L13.82 11.80Q13.56 12.31 13.26 12.82L13.26 12.82L13.26 12.82Q13.20 12.92 12.61 13.30L12.61 13.30L12.61 13.30Q12.02 13.69 11.94 13.75L11.94 13.75L11.94 13.75Q11.56 12.60 10.99 11.61L10.99 11.61L10.99 11.61Q10.42 10.62 10.06 10.02L10.06 10.02L10.06 10.02Q9.69 9.43 9.33 8.83L9.33 8.83L8.24 7.02L8.24 7.02Q7.95 10.55 7.80 11.34L7.80 11.34L7.80 11.34Q7.64 12.13 7.50 12.53L7.50 12.53L7.50 12.53Q7.36 12.93 7.15 13.15L7.15 13.15L9.34 13.15L9.34 13.15Q8.20 14.08 8.01 14.08L8.01 14.08L5.76 14.08L5.76 14.08Q6.16 13.69 6.43 12.35L6.43 12.35L6.43 12.35Q6.73 10.86 7.13 5.17L7.13 5.17L5.41 5.17L5.41 5.17Q5.91 4.68 6.60 4.30L6.60 4.30L6.60 4.30Q6.69 4.25 6.74 4.25L6.74 4.25L8.46 4.25L8.46 4.25Q9.04 5.20 9.60 6.14L9.60 6.14L10.74 8.03L10.74 8.03Q11.03 8.51 11.32 8.99L11.32 8.99L11.32 8.99Q11.61 9.46 11.89 9.94L11.89 9.94L11.89 9.94Q12.57 11.11 12.92 11.92L12.92 11.92L12.92 11.92Q13.57 10.78 14.45 9.17L14.45 9.17L14.45 9.17Q16.02 6.28 16.78 4.97L16.78 4.97L16.78 4.97Q16.91 4.76 17.79 4.24L17.79 4.24L17.79 4.24Q17.99 4.12 18.11 4.04L18.11 4.04L18.11 4.04Q18.27 7.03 18.34 8.78L18.34 8.78L18.34 8.78Q18.42 10.53 18.44 10.88L18.44 10.88L18.44 10.88Q18.47 11.22 18.47 11.58ZM33.62 11.58L33.62 11.58L33.62 11.58Q33.62 12.60 33.27 13.15L33.27 13.15L35.29 13.15L35.29 13.15Q35.16 13.19 34.99 13.34L34.99 13.34L34.99 13.34Q34.82 13.49 34.64 13.65L34.64 13.65L34.64 13.65Q34.15 14.08 33.96 14.08L33.96 14.08L31.93 14.08L31.93 14.08Q32.27 13.58 32.27 12.70L32.27 12.70L32.27 12.70Q32.27 11.83 32.23 11.02L32.23 11.02L32.23 11.02Q32.18 10.21 32.16 9.63L32.16 9.63L32.16 9.63Q32.13 9.04 32.11 8.66L32.11 8.66L32.11 8.66Q32.09 8.28 32.08 7.89L32.08 7.89L32.08 7.89Q32.03 6.75 32.01 6.38L32.01 6.38L32.01 6.38Q31.40 7.44 30.77 8.58L30.77 8.58L30.77 8.58Q30.13 9.71 29.68 10.50L29.68 10.50L29.68 10.50Q29.23 11.29 28.97 11.80L28.97 11.80L28.97 11.80Q28.70 12.31 28.41 12.82L28.41 12.82L28.41 12.82Q28.35 12.92 27.76 13.30L27.76 13.30L27.76 13.30Q27.17 13.69 27.08 13.75L27.08 13.75L27.08 13.75Q26.71 12.60 26.14 11.61L26.14 11.61L26.14 11.61Q25.57 10.62 25.20 10.02L25.20 10.02L25.20 10.02Q24.83 9.43 24.48 8.83L24.48 8.83L23.39 7.02L23.39 7.02Q23.10 10.55 22.94 11.34L22.94 11.34L22.94 11.34Q22.79 12.13 22.65 12.53L22.65 12.53L22.65 12.53Q22.51 12.93 22.30 13.15L22.30 13.15L24.49 13.15L24.49 13.15Q23.35 14.08 23.16 14.08L23.16 14.08L20.91 14.08L20.91 14.08Q21.31 13.69 21.57 12.35L21.57 12.35L21.57 12.35Q21.88 10.86 22.28 5.17L22.28 5.17L20.56 5.17L20.56 5.17Q21.06 4.68 21.75 4.30L21.75 4.30L21.75 4.30Q21.84 4.25 21.89 4.25L21.89 4.25L23.61 4.25L23.61 4.25Q24.19 5.20 24.75 6.14L24.75 6.14L25.89 8.03L25.89 8.03Q26.17 8.51 26.47 8.99L26.47 8.99L26.47 8.99Q26.76 9.46 27.04 9.94L27.04 9.94L27.04 9.94Q27.72 11.11 28.07 11.92L28.07 11.92L28.07 11.92Q28.72 10.78 29.60 9.17L29.60 9.17L29.60 9.17Q31.17 6.28 31.93 4.97L31.93 4.97L31.93 4.97Q32.06 4.76 32.94 4.24L32.94 4.24L32.94 4.24Q33.14 4.12 33.26 4.04L33.26 4.04L33.26 4.04Q33.42 7.03 33.49 8.78L33.49 8.78L33.49 8.78Q33.56 10.53 33.59 10.88L33.59 10.88L33.59 10.88Q33.62 11.22 33.62 11.58ZM46.74 8.38L46.74 8.38L46.74 8.38Q46.74 9.08 46.50 9.85L46.50 9.85L46.50 9.85Q46.27 10.62 45.85 11.32L45.85 11.32L45.85 11.32Q45.42 12.02 44.84 12.63L44.84 12.63L44.84 12.63Q44.26 13.24 43.58 13.69L43.58 13.69L43.58 13.69Q42.12 14.64 40.59 14.64L40.59 14.64L40.59 14.64Q38.44 14.64 37.18 13.38L37.18 13.38L37.18 13.38Q35.92 12.13 35.92 9.99L35.92 9.99L35.92 9.99Q35.92 8.37 36.81 6.95L36.81 6.95L36.81 6.95Q37.66 5.58 39.08 4.77L39.08 4.77L39.08 4.77Q40.52 3.94 42.15 3.94L42.15 3.94L42.15 3.94Q44.02 3.94 45.37 5.18L45.37 5.18L45.37 5.18Q46.74 6.45 46.74 8.38ZM45.41 9.47L45.41 9.47L45.41 9.47Q45.41 8.52 45.08 7.66L45.08 7.66L45.08 7.66Q44.75 6.79 44.14 6.18L44.14 6.18L44.14 6.18Q42.87 4.90 40.76 4.90L40.76 4.90L40.76 4.90Q38.00 4.90 37.43 7.22L37.43 7.22L37.43 7.22Q37.25 7.95 37.25 8.96L37.25 8.96L37.25 8.96Q37.25 9.96 37.56 10.86L37.56 10.86L37.56 10.86Q37.87 11.76 38.47 12.40L38.47 12.40L38.47 12.40Q39.73 13.73 41.95 13.73L41.95 13.73L41.95 13.73Q43.72 13.73 44.62 12.50L44.62 12.50L44.62 12.50Q45.41 11.42 45.41 9.47ZM50.72 4.25L50.72 4.25L52.08 4.24L52.08 4.24Q53.22 4.24 53.78 4.57L53.78 4.57L53.78 4.57Q54.50 5.00 54.50 6.06L54.50 6.06L54.50 6.06Q54.50 7.04 53.37 7.87L53.37 7.87L53.37 7.87Q53.05 8.09 52.76 8.30L52.76 8.30L52.76 8.30Q54.41 8.48 54.94 9.65L54.94 9.65L54.94 9.65Q55.13 10.06 55.13 10.53L55.13 10.53L55.13 10.53Q55.13 11.00 54.96 11.38L54.96 11.38L54.96 11.38Q54.78 11.75 54.49 12.10L54.49 12.10L54.49 12.10Q54.20 12.44 53.83 12.75L53.83 12.75L53.83 12.75Q53.46 13.06 53.06 13.30L53.06 13.30L53.06 13.30Q51.97 13.97 51.14 14.03L51.14 14.03L51.14 14.03Q50.55 14.08 50.10 14.08L50.10 14.08L48.56 14.08L48.56 14.08Q48.86 13.66 48.92 13.47L48.92 13.47L48.92 13.47Q49.02 13.18 49.02 12.67L49.02 12.67L49.02 5.17L47.52 5.17L47.52 5.17Q48.60 4.25 48.84 4.25L48.84 4.25L48.84 4.25Q49.79 4.25 50.72 4.25ZM50.35 5.14L50.35 8.31L50.35 8.31Q50.78 8.29 51.42 8.29L51.42 8.29L51.42 8.29Q52.06 8.29 52.35 8.31L52.35 8.31L52.35 8.31Q53.03 8.09 53.15 7.49L53.15 7.49L53.15 7.49Q53.18 7.28 53.18 7.01L53.18 7.01L53.18 7.01Q53.18 5.13 50.83 5.13L50.83 5.13L50.83 5.13Q50.58 5.13 50.35 5.14L50.35 5.14ZM50.35 9.21L50.35 11.71L50.35 11.71Q50.35 12.50 49.91 13.15L49.91 13.15L51.82 13.15L51.82 13.15Q52.62 13.15 53.00 12.93L53.00 12.93L53.00 12.93Q53.38 12.71 53.58 12.39L53.58 12.39L53.58 12.39Q53.78 12.07 53.78 11.55L53.78 11.55L53.78 11.55Q53.78 11.02 53.63 10.64L53.63 10.64L53.63 10.64Q53.49 10.27 53.25 10.01L53.25 10.01L53.25 10.01Q53.00 9.75 52.66 9.59L52.66 9.59L52.66 9.59Q52.33 9.43 51.95 9.35L51.95 9.35L51.95 9.35Q51.32 9.21 50.35 9.21L50.35 9.21ZM58.79 5.17L58.79 11.98L58.79 11.98Q58.79 12.74 58.25 13.15L58.25 13.15L62.10 13.15L62.10 13.15Q62.66 13.15 62.94 13.02L62.94 13.02L62.94 13.02Q63.23 12.89 63.36 12.78L63.36 12.78L63.36 12.78Q62.55 13.79 61.62 14.03L61.62 14.03L61.62 14.03Q61.41 14.08 61.20 14.08L61.20 14.08L56.77 14.08L56.77 14.08Q57.16 13.71 57.26 13.47L57.26 13.47L57.26 13.47Q57.46 13.03 57.46 12.45L57.46 12.45L57.46 5.17L56.18 5.17L56.44 4.96L56.44 4.96Q57.31 4.25 57.50 4.25L57.50 4.25L60.62 4.25L60.62 4.25Q60.55 4.25 60.21 4.54L60.21 4.54L60.21 4.54Q59.88 4.83 59.75 4.94L59.75 4.94L59.75 4.94Q59.43 5.17 59.29 5.17L59.29 5.17L58.79 5.17ZM64.99 5.17L63.71 5.17L63.71 5.17Q64.85 4.25 65.04 4.25L65.04 4.25L68.15 4.25L68.15 4.25Q68.07 4.26 67.74 4.55L67.74 4.55L67.74 4.55Q67.41 4.83 67.27 4.94L67.27 4.94L67.27 4.94Q66.96 5.17 66.83 5.17L66.83 5.17L66.32 5.17L66.32 11.43L66.32 11.43Q66.32 12.61 65.83 13.15L65.83 13.15L68.02 13.15L68.02 13.15Q67.93 13.17 67.60 13.45L67.60 13.45L67.60 13.45Q67.27 13.74 67.14 13.84L67.14 13.84L67.14 13.84Q66.83 14.08 66.69 14.08L66.69 14.08L64.37 14.08L64.37 14.08Q64.74 13.72 64.83 13.47L64.83 13.47L64.83 13.47Q64.99 13.06 64.99 12.45L64.99 12.45L64.99 5.17ZM69.98 5.17L68.70 5.17L68.70 5.17Q69.84 4.25 70.03 4.25L70.03 4.25L75.67 4.25L75.67 4.25Q75.60 4.25 75.23 4.57L75.23 4.57L75.23 4.57Q74.86 4.89 74.67 5.03L74.67 5.03L74.67 5.03Q74.47 5.17 74.35 5.17L74.35 5.17L71.31 5.17L71.31 8.49L74.63 8.49L74.63 8.49Q74.55 8.50 74.38 8.64L74.38 8.64L74.38 8.64Q74.21 8.79 74.01 8.96L74.01 8.96L74.01 8.96Q73.47 9.42 73.29 9.42L73.29 9.42L71.31 9.42L71.31 11.65L71.31 11.65Q71.31 12.41 71.08 12.89L71.08 12.89L71.08 12.89Q70.99 13.08 70.85 13.15L70.85 13.15L74.65 13.15L74.65 13.15Q75.04 13.15 75.46 12.97L75.46 12.97L75.88 12.80L75.88 12.80Q75.53 13.21 74.39 13.82L74.39 13.82L74.39 13.82Q73.90 14.08 73.73 14.08L73.73 14.08L69.36 14.08L69.36 14.08Q69.98 13.25 69.98 12.45L69.98 12.45L69.98 9.42L69.02 9.42L69.02 9.42Q69.62 8.94 69.98 8.67L69.98 8.67L69.98 5.17ZM77.62 4.25L80.92 4.25L80.92 4.25Q84.08 4.25 84.08 6.30L84.08 6.30L84.08 6.30Q84.08 7.30 83.23 8.16L83.23 8.16L83.23 8.16Q82.56 8.84 81.50 9.35L81.50 9.35L81.50 9.35Q82.03 9.56 82.55 10.14L82.55 10.14L82.55 10.14Q82.69 10.30 82.85 10.47L82.85 10.47L84.63 12.44L84.63 12.44Q85.09 12.97 85.30 13.07L85.30 13.07L85.30 13.07Q85.51 13.17 85.65 13.17L85.65 13.17L85.65 13.17Q85.96 13.17 86.30 12.95L86.30 12.95L86.30 12.95Q85.48 14.12 84.27 14.12L84.27 14.12L84.27 14.12Q83.96 14.12 83.66 13.77L83.66 13.77L83.66 13.77Q83.58 13.68 83.50 13.59L83.50 13.59L81.68 11.57L81.68 11.57Q81.29 11.14 81.01 10.85L81.01 10.85L81.01 10.85Q80.74 10.56 80.47 10.38L80.47 10.38L80.47 10.38Q79.97 10.05 79.09 10.05L79.09 10.05L79.09 11.43L79.09 11.43Q79.09 12.10 79.04 12.33L79.04 12.33L79.04 12.33Q78.95 12.66 78.61 13.15L78.61 13.15L80.79 13.15L80.79 13.15Q80.71 13.17 80.51 13.34L80.51 13.34L80.51 13.34Q80.32 13.51 80.18 13.63L80.18 13.63L80.18 13.63Q80.04 13.75 79.91 13.85L79.91 13.85L79.91 13.85Q79.60 14.08 79.47 14.08L79.47 14.08L77.22 14.08L77.22 14.08Q77.77 13.48 77.77 12.45L77.77 12.45L77.77 5.17L76.29 5.17L76.55 4.96L76.55 4.96Q77.42 4.25 77.62 4.25L77.62 4.25ZM82.76 7.29L82.76 7.29L82.76 7.29Q82.76 6.71 82.50 6.30L82.50 6.30L82.50 6.30Q82.25 5.90 81.85 5.65L81.85 5.65L81.85 5.65Q81.09 5.17 79.94 5.17L79.94 5.17L79.09 5.17L79.09 9.09L80.16 9.09L80.16 9.09Q81.38 9.09 81.96 8.78L81.96 8.78L81.96 8.78Q82.76 8.37 82.76 7.29ZM91.25 5.83L91.25 5.83L91.25 5.83Q91.48 5.60 91.48 5.49L91.48 5.49L91.48 5.49Q91.48 5.39 91.38 5.31L91.38 5.31L91.38 5.31Q91.28 5.24 91.13 5.18L91.13 5.18L91.13 5.18Q90.97 5.13 90.78 5.09L90.78 5.09L90.78 5.09Q90.60 5.05 90.42 5.03L90.42 5.03L90.42 5.03Q90.06 4.99 89.81 4.99L89.81 4.99L89.81 4.99Q89.56 4.99 89.24 5.04L89.24 5.04L89.24 5.04Q88.92 5.09 88.64 5.22L88.64 5.22L88.64 5.22Q88.02 5.54 88.02 6.16L88.02 6.16L88.02 6.16Q88.02 6.78 88.25 7.15L88.25 7.15L88.25 7.15Q88.48 7.53 88.85 7.77L88.85 7.77L88.85 7.77Q89.22 8.02 89.69 8.18L89.69 8.18L89.69 8.18Q90.17 8.35 90.67 8.49L90.67 8.49L90.67 8.49Q91.16 8.63 91.64 8.80L91.64 8.80L91.64 8.80Q92.11 8.96 92.48 9.21L92.48 9.21L92.48 9.21Q93.31 9.78 93.31 10.79L93.31 10.79L93.31 10.79Q93.31 11.79 92.47 12.63L92.47 12.63L92.47 12.63Q91.75 13.36 90.56 13.82L90.56 13.82L90.56 13.82Q89.49 14.25 88.50 14.25L88.50 14.25L88.50 14.25Q87.90 14.25 87.40 14.10L87.40 14.10L87.40 14.10Q86.91 13.96 86.70 13.85L86.70 13.85L86.70 13.85Q86.22 13.61 86.22 13.28L86.22 13.28L86.22 13.28Q86.22 12.76 87.79 11.90L87.79 11.90L87.79 11.90Q87.58 12.13 87.58 12.34L87.58 12.34L87.58 12.34Q87.58 12.54 87.72 12.69L87.72 12.69L87.72 12.69Q87.85 12.84 88.06 12.94L88.06 12.94L88.06 12.94Q88.27 13.05 88.54 13.12L88.54 13.12L88.54 13.12Q88.80 13.19 89.06 13.23L89.06 13.23L89.06 13.23Q89.54 13.30 89.93 13.30L89.93 13.30L89.93 13.30Q90.32 13.30 90.69 13.23L90.69 13.23L90.69 13.23Q91.07 13.16 91.36 12.98L91.36 12.98L91.36 12.98Q92.03 12.58 92.03 11.73L92.03 11.73L92.03 11.73Q92.03 10.40 90.34 9.76L90.34 9.76L90.34 9.76Q89.87 9.58 89.36 9.42L89.36 9.42L89.36 9.42Q88.86 9.26 88.38 9.09L88.38 9.09L88.38 9.09Q87.90 8.92 87.53 8.68L87.53 8.68L87.53 8.68Q86.70 8.13 86.70 7.24L86.70 7.24L86.70 7.24Q86.70 6.49 87.54 5.70L87.54 5.70L87.54 5.70Q88.27 5.02 89.37 4.53L89.37 4.53L89.37 4.53Q90.41 4.05 91.15 4.05L91.15 4.05L91.15 4.05Q91.81 4.05 92.22 4.18L92.22 4.18L92.22 4.18Q92.62 4.30 92.73 4.36L92.73 4.36L92.73 4.36Q92.83 4.43 92.83 4.52L92.83 4.52L92.83 4.52Q92.83 4.60 92.74 4.72L92.74 4.72L92.74 4.72Q92.64 4.84 92.49 4.98L92.49 4.98L92.49 4.98Q92.34 5.11 92.16 5.25L92.16 5.25L92.16 5.25Q91.98 5.39 91.80 5.50L91.80 5.50L91.80 5.50Q91.39 5.77 91.25 5.83ZM94.87 13.16L94.87 13.16L94.87 13.16Q94.92 13.15 95.42 13.15L95.42 13.15L95.42 13.15Q96.27 13.15 96.68 13.02L96.68 13.02L96.68 13.02Q97.08 12.89 97.26 12.78L97.26 12.78L97.26 12.78Q97.01 12.97 96.80 13.14L96.80 13.14L96.80 13.14Q96.34 13.49 96.06 13.65L96.06 13.65L96.06 13.65Q95.79 13.81 95.51 13.89L95.51 13.89L95.51 13.89Q95.24 13.98 94.95 14.02L94.95 14.02L94.95 14.02Q94.53 14.08 93.80 14.08L93.80 14.08L93.53 14.08L93.53 14.08Q93.54 14.08 93.54 14.07L93.54 14.07L93.54 14.07Q93.54 14.06 93.64 13.96L93.64 13.96L93.64 13.96Q93.73 13.86 93.91 13.66L93.91 13.66L93.91 13.66Q94.08 13.47 94.38 13.08L94.38 13.08L94.38 13.08Q94.67 12.69 95.02 12.07L95.02 12.07L95.02 12.07Q95.36 11.46 95.66 10.82L95.66 10.82L95.66 10.82Q95.96 10.18 96.23 9.52L96.23 9.52L96.23 9.52Q96.50 8.87 96.79 8.21L96.79 8.21L96.79 8.21Q97.08 7.55 97.38 6.87L97.38 6.87L97.38 6.87Q97.69 6.20 97.84 5.82L97.84 5.82L97.84 5.82Q97.99 5.43 98.02 5.34L98.02 5.34L98.02 5.34Q98.04 5.24 98.10 5.17L98.10 5.17L97.58 5.17L97.58 5.17Q96.30 5.17 95.60 5.46L95.60 5.46L95.60 5.46Q96.54 4.64 97.18 4.43L97.18 4.43L97.18 4.43Q97.76 4.25 99.07 4.25L99.07 4.25L99.43 4.25L99.43 4.25Q99.72 5.22 100.02 6.23L100.02 6.23L100.02 6.23Q100.32 7.23 100.62 8.24L100.62 8.24L100.62 8.24Q101.27 10.42 101.61 11.41L101.61 11.41L101.61 11.41Q101.94 12.39 102.00 12.58L102.00 12.58L102.00 12.58Q102.05 12.77 102.14 12.92L102.14 12.92L102.14 12.92Q102.34 13.25 102.78 13.25L102.78 13.25L102.78 13.25Q103.02 13.25 103.28 13.14L103.28 13.14L103.28 13.14Q103.54 13.03 103.69 12.94L103.69 12.94L103.69 12.94Q103.44 13.13 103.25 13.28L103.25 13.28L103.25 13.28Q102.76 13.65 102.62 13.74L102.62 13.74L102.62 13.74Q102.48 13.82 102.35 13.90L102.35 13.90L102.35 13.90Q102.21 13.99 102.06 14.05L102.06 14.05L102.06 14.05Q101.10 14.48 100.77 13.73L100.77 13.73L100.77 13.73Q100.53 13.21 100.19 12.05L100.19 12.05L100.19 12.05Q99.86 10.89 99.60 10.08L99.60 10.08L99.60 10.08Q99.03 10.49 97.10 10.46L97.10 10.46L97.10 10.46Q96.85 10.46 96.67 10.46L96.67 10.46L96.67 10.46Q95.90 12.00 95.17 12.82L95.17 12.82L95.17 12.82Q95.11 12.89 95.05 12.96L95.05 12.96L95.05 12.96Q94.87 13.17 94.87 13.16ZM97.21 9.51L97.21 9.51L98.56 9.54L98.56 9.54Q98.98 9.54 99.42 9.51L99.42 9.51L99.42 9.51Q99.11 8.51 98.49 6.45L98.49 6.45L98.49 6.45Q97.81 8.00 97.11 9.53L97.11 9.53L97.11 9.53Q97.19 9.51 97.21 9.51ZM108.75 5.83L108.75 5.83L108.75 5.83Q108.98 5.60 108.98 5.49L108.98 5.49L108.98 5.49Q108.98 5.39 108.88 5.31L108.88 5.31L108.88 5.31Q108.78 5.24 108.63 5.18L108.63 5.18L108.63 5.18Q108.47 5.13 108.28 5.09L108.28 5.09L108.28 5.09Q108.10 5.05 107.92 5.03L107.92 5.03L107.92 5.03Q107.56 4.99 107.31 4.99L107.31 4.99L107.31 4.99Q107.06 4.99 106.74 5.04L106.74 5.04L106.74 5.04Q106.42 5.09 106.14 5.22L106.14 5.22L106.14 5.22Q105.52 5.54 105.52 6.16L105.52 6.16L105.52 6.16Q105.52 6.78 105.75 7.15L105.75 7.15L105.75 7.15Q105.98 7.53 106.35 7.77L106.35 7.77L106.35 7.77Q106.72 8.02 107.19 8.18L107.19 8.18L107.19 8.18Q107.67 8.35 108.17 8.49L108.17 8.49L108.17 8.49Q108.66 8.63 109.14 8.80L109.14 8.80L109.14 8.80Q109.61 8.96 109.98 9.21L109.98 9.21L109.98 9.21Q110.81 9.78 110.81 10.79L110.81 10.79L110.81 10.79Q110.81 11.79 109.97 12.63L109.97 12.63L109.97 12.63Q109.25 13.36 108.06 13.82L108.06 13.82L108.06 13.82Q106.99 14.25 106.00 14.25L106.00 14.25L106.00 14.25Q105.40 14.25 104.90 14.10L104.90 14.10L104.90 14.10Q104.41 13.96 104.20 13.85L104.20 13.85L104.20 13.85Q103.72 13.61 103.72 13.28L103.72 13.28L103.72 13.28Q103.72 12.76 105.29 11.90L105.29 11.90L105.29 11.90Q105.08 12.13 105.08 12.34L105.08 12.34L105.08 12.34Q105.08 12.54 105.22 12.69L105.22 12.69L105.22 12.69Q105.35 12.84 105.56 12.94L105.56 12.94L105.56 12.94Q105.77 13.05 106.04 13.12L106.04 13.12L106.04 13.12Q106.30 13.19 106.56 13.23L106.56 13.23L106.56 13.23Q107.04 13.30 107.43 13.30L107.43 13.30L107.43 13.30Q107.82 13.30 108.19 13.23L108.19 13.23L108.19 13.23Q108.57 13.16 108.86 12.98L108.86 12.98L108.86 12.98Q109.53 12.58 109.53 11.73L109.53 11.73L109.53 11.73Q109.53 10.40 107.84 9.76L107.84 9.76L107.84 9.76Q107.37 9.58 106.86 9.42L106.86 9.42L106.86 9.42Q106.36 9.26 105.88 9.09L105.88 9.09L105.88 9.09Q105.40 8.92 105.03 8.68L105.03 8.68L105.03 8.68Q104.20 8.13 104.20 7.24L104.20 7.24L104.20 7.24Q104.20 6.49 105.04 5.70L105.04 5.70L105.04 5.70Q105.77 5.02 106.87 4.53L106.87 4.53L106.87 4.53Q107.91 4.05 108.65 4.05L108.65 4.05L108.65 4.05Q109.31 4.05 109.72 4.18L109.72 4.18L109.72 4.18Q110.12 4.30 110.23 4.36L110.23 4.36L110.23 4.36Q110.33 4.43 110.33 4.52L110.33 4.52L110.33 4.52Q110.33 4.60 110.24 4.72L110.24 4.72L110.24 4.72Q110.14 4.84 109.99 4.98L109.99 4.98L109.99 4.98Q109.84 5.11 109.66 5.25L109.66 5.25L109.66 5.25Q109.48 5.39 109.30 5.50L109.30 5.50L109.30 5.50Q108.89 5.77 108.75 5.83ZM112.94 5.17L111.67 5.17L111.67 5.17Q112.80 4.25 112.99 4.25L112.99 4.25L116.11 4.25L116.11 4.25Q116.02 4.26 115.69 4.55L115.69 4.55L115.69 4.55Q115.36 4.83 115.23 4.94L115.23 4.94L115.23 4.94Q114.92 5.17 114.78 5.17L114.78 5.17L114.28 5.17L114.28 11.43L114.28 11.43Q114.28 12.61 113.78 13.15L113.78 13.15L115.98 13.15L115.98 13.15Q115.88 13.17 115.55 13.45L115.55 13.45L115.55 13.45Q115.23 13.74 115.09 13.84L115.09 13.84L115.09 13.84Q114.78 14.08 114.65 14.08L114.65 14.08L112.33 14.08L112.33 14.08Q112.69 13.72 112.79 13.47L112.79 13.47L112.79 13.47Q112.94 13.06 112.94 12.45L112.94 12.45L112.94 5.17Z"></path></g><!----><!----></svg>